<?xml version="1.0" encoding="UTF-8" standalone="no"?>
<svg
   width="375"
   zoomAndPan="magnify"
   viewBox="0 0 375 374.999991"
   height="374.999991"
   preserveAspectRatio="xMidYMid meet"
   version="1.0"
   id="svg42100"
   sodipodi:docname="icon-water.svg"
   inkscape:version="1.1.1 (3bf5ae0, 2021-09-20)"
   xmlns:inkscape="http://www.inkscape.org/namespaces/inkscape"
   xmlns:sodipodi="http://sodipodi.sourceforge.net/DTD/sodipodi-0.dtd"
   xmlns="http://www.w3.org/2000/svg"
   xmlns:svg="http://www.w3.org/2000/svg">
  <sodipodi:namedview
     id="namedview42102"
     pagecolor="#505050"
     bordercolor="#ffffff"
     borderopacity="1"
     inkscape:pageshadow="0"
     inkscape:pageopacity="0"
     inkscape:pagecheckerboard="1"
     showgrid="false"
     inkscape:zoom="0.70266667"
     inkscape:cx="34.867173"
     inkscape:cy="232.68501"
     inkscape:window-width="1366"
     inkscape:window-height="708"
     inkscape:window-x="0"
     inkscape:window-y="0"
     inkscape:window-maximized="1"
     inkscape:current-layer="svg42100" />
  <defs
     id="defs42038">
    <clipPath
       id="clip-0">
      <path
         d="M 112.5 117.1875 L 262.5 117.1875 L 262.5 127 L 112.5 127 Z M 112.5 117.1875 "
         clip-rule="nonzero"
         id="path41996" />
    </clipPath>
    <clipPath
       id="clip-1">
      <path
         d="M 112.5 248 L 262.5 248 L 262.5 258.1875 L 112.5 258.1875 Z M 112.5 248 "
         clip-rule="nonzero"
         id="path41999" />
    </clipPath>
    <clipPath
       id="clip-2">
      <path
         d="M 112.5 229 L 157 229 L 157 240 L 112.5 240 Z M 112.5 229 "
         clip-rule="nonzero"
         id="path42002" />
    </clipPath>
    <clipPath
       id="clip-3">
      <path
         d="M 219 229 L 262.5 229 L 262.5 240 L 219 240 Z M 219 229 "
         clip-rule="nonzero"
         id="path42005" />
    </clipPath>
    <clipPath
       id="clip-4">
      <path
         d="M 112.5 211 L 148 211 L 148 221 L 112.5 221 Z M 112.5 211 "
         clip-rule="nonzero"
         id="path42008" />
    </clipPath>
    <clipPath
       id="clip-5">
      <path
         d="M 227 211 L 262.5 211 L 262.5 221 L 227 221 Z M 227 211 "
         clip-rule="nonzero"
         id="path42011" />
    </clipPath>
    <clipPath
       id="clip-6">
      <path
         d="M 112.5 192 L 149 192 L 149 202 L 112.5 202 Z M 112.5 192 "
         clip-rule="nonzero"
         id="path42014" />
    </clipPath>
    <clipPath
       id="clip-7">
      <path
         d="M 226 192 L 262.5 192 L 262.5 202 L 226 202 Z M 226 192 "
         clip-rule="nonzero"
         id="path42017" />
    </clipPath>
    <clipPath
       id="clip-8">
      <path
         d="M 218 173 L 262.5 173 L 262.5 183 L 218 183 Z M 218 173 "
         clip-rule="nonzero"
         id="path42020" />
    </clipPath>
    <clipPath
       id="clip-9">
      <path
         d="M 112.5 173 L 157 173 L 157 183 L 112.5 183 Z M 112.5 173 "
         clip-rule="nonzero"
         id="path42023" />
    </clipPath>
    <clipPath
       id="clip-10">
      <path
         d="M 210 154 L 262.5 154 L 262.5 165 L 210 165 Z M 210 154 "
         clip-rule="nonzero"
         id="path42026" />
    </clipPath>
    <clipPath
       id="clip-11">
      <path
         d="M 112.5 154 L 165 154 L 165 165 L 112.5 165 Z M 112.5 154 "
         clip-rule="nonzero"
         id="path42029" />
    </clipPath>
    <clipPath
       id="clip-12">
      <path
         d="M 112.5 136 L 176 136 L 176 146 L 112.5 146 Z M 112.5 136 "
         clip-rule="nonzero"
         id="path42032" />
    </clipPath>
    <clipPath
       id="clip-13">
      <path
         d="M 200 136 L 262.5 136 L 262.5 146 L 200 146 Z M 200 136 "
         clip-rule="nonzero"
         id="path42035" />
    </clipPath>
    <clipPath
       id="clip-0-63">
      <path
         d="m 112.5,113 h 150 v 149.5 h -150 z m 0,0"
         clip-rule="nonzero"
         id="path39892" />
    </clipPath>
    <clipPath
       id="clip-1-2">
      <path
         d="m 147,251 h 81 v 11.5 h -81 z m 0,0"
         clip-rule="nonzero"
         id="path39895" />
    </clipPath>
  </defs>
  <g
     id="g44213">
    <g
       clip-path="url(#clip-0)"
       id="g42042"
       style="fill:#09009b;fill-opacity:1"
       transform="matrix(1.8227828,0,0,1.8227828,-154.83535,-155.17707)">
      <path
         fill="rgb(7.058716%, 48.239136%, 79.60968%)"
         d="m 260.04297,117.29688 c -5.14844,0 -7.72266,1.41015 -10.17969,2.58203 -2.10547,1.17187 -3.97656,2.10937 -7.95703,2.10937 -3.97656,0 -5.84766,-0.9375 -7.95703,-2.10937 -2.33985,-1.17188 -5.03125,-2.58203 -10.17969,-2.58203 -5.14453,0 -7.71875,1.41015 -10.17578,2.58203 -2.10938,1.17187 -3.98047,2.10937 -7.95703,2.10937 -3.98047,0 -5.85156,-0.9375 -7.95703,-2.10937 -2.33985,-1.17188 -5.03125,-2.58203 -10.17969,-2.58203 -5.14844,0 -7.72266,1.41015 -10.17969,2.58203 -2.10547,1.17187 -3.97656,2.10937 -7.95703,2.10937 -3.97656,0 -5.84766,-0.9375 -7.95703,-2.10937 -2.33984,-1.17188 -5.03125,-2.58203 -10.17578,-2.58203 -5.14844,0 -7.72266,1.41015 -10.17969,2.58203 -2.10937,1.17187 -3.98047,2.10937 -7.95703,2.10937 -3.98047,0 -5.85156,-0.9375 -7.95703,-2.10937 -2.45703,-1.17188 -5.03125,-2.58203 -10.17969,-2.58203 -1.28515,0 -2.33984,1.05468 -2.33984,2.34765 0,1.28906 1.05469,2.34375 2.33984,2.34375 3.97656,0 5.85156,0.94141 7.95703,2.11328 2.33985,1.17188 5.03125,2.58203 10.17969,2.58203 5.14844,0 7.72266,-1.41015 10.17969,-2.58203 2.10547,-1.17187 3.97656,-2.11328 7.95703,-2.11328 3.97656,0 5.84765,0.94141 7.95312,2.11328 2.33985,1.17188 5.03125,2.58203 10.17969,2.58203 5.14844,0 7.72266,-1.41015 10.17969,-2.58203 2.10547,-1.17187 3.98047,-2.11328 7.95703,-2.11328 3.97656,0 5.85156,0.94141 7.95703,2.11328 2.33984,1.17188 5.03125,2.58203 10.17969,2.58203 5.14844,0 7.72265,-1.41015 10.17969,-2.58203 2.10546,-1.17187 3.97656,-2.11328 7.95312,-2.11328 3.98047,0 5.85156,0.94141 7.95703,2.11328 2.33985,1.17188 5.03125,2.58203 10.17969,2.58203 5.14844,0 7.72266,-1.41015 10.17969,-2.58203 2.10547,-1.17187 3.98047,-2.11328 7.95703,-2.11328 1.28515,0 2.33984,-1.05469 2.33984,-2.34375 0,-1.29297 -1.05469,-2.34765 -2.33984,-2.34765 z m 0,0"
         fill-opacity="1"
         fill-rule="nonzero"
         id="path42040"
         style="fill:#09009b;fill-opacity:1" />
    </g>
    <g
       clip-path="url(#clip-1)"
       id="g42046"
       style="fill:#09009b;fill-opacity:1"
       transform="matrix(1.9203939,0,0,1.8227828,-174.2089,-155.17707)">
      <path
         fill="rgb(7.058716%, 48.239136%, 79.60968%)"
         d="m 260.04297,248.69141 c -5.14844,0 -7.72266,1.41015 -10.17969,2.58203 -2.10547,1.17187 -3.97656,2.11328 -7.95703,2.11328 -3.97656,0 -5.84766,-0.94141 -7.95703,-2.11328 -2.33985,-1.17188 -5.03125,-2.58203 -10.17969,-2.58203 -5.14453,0 -7.71875,1.41015 -10.17578,2.58203 -2.10938,1.17187 -3.98047,2.11328 -7.95703,2.11328 -3.98047,0 -5.85156,-0.94141 -7.95703,-2.11328 -0.70313,-0.35157 -1.40625,-0.70313 -2.22266,-1.05469 -2.57422,0.46875 -5.14844,0.82031 -7.83984,0.82031 -2.69141,0 -5.38282,-0.23437 -7.95703,-0.82031 -0.82032,0.35156 -1.51954,0.70312 -2.22266,1.05469 -2.10547,1.17187 -3.97656,2.11328 -7.95703,2.11328 -3.97656,0 -5.84766,-0.94141 -7.95703,-2.11328 -2.33985,-1.17188 -5.03125,-2.58203 -10.17969,-2.58203 -5.14453,0 -7.71875,1.41015 -10.17578,2.58203 -2.10938,1.17187 -3.98047,2.11328 -7.95703,2.11328 -3.98047,0 -5.85156,-0.94141 -7.95703,-2.11328 -2.33985,-1.17188 -5.03125,-2.58203 -10.17969,-2.58203 -1.28906,0 -2.33984,1.05468 -2.33984,2.34765 0,1.28906 1.05078,2.34766 2.33984,2.34766 3.97656,0 5.85156,0.9375 7.95703,2.10937 2.33984,1.17188 5.03125,2.58203 10.17969,2.58203 5.14843,0 7.72265,-1.41015 10.17968,-2.58203 2.10547,-1.17187 3.97657,-2.10937 7.95313,-2.10937 3.98047,0 5.85156,0.9375 7.95703,2.10937 2.33984,1.17188 5.03125,2.58203 10.17969,2.58203 5.14844,0 7.72265,-1.41015 10.17969,-2.58203 2.10546,-1.17187 3.98046,-2.10937 7.95703,-2.10937 3.97656,0 5.85156,0.9375 7.95703,2.10937 2.33984,1.17188 5.03125,2.58203 10.17969,2.58203 5.14843,0 7.72265,-1.41015 10.17968,-2.58203 2.10547,-1.17187 3.97657,-2.10937 7.95313,-2.10937 3.98047,0 5.85156,0.9375 7.95703,2.10937 2.33984,1.17188 5.03125,2.58203 10.17969,2.58203 5.14843,0 7.72265,-1.41015 10.17968,-2.58203 2.10547,-1.17187 3.98047,-2.10937 7.95704,-2.10937 1.28515,0 2.33984,-1.0586 2.33984,-2.34766 0,-1.29297 -1.17188,-2.34765 -2.45703,-2.34765 z m 0,0"
         fill-opacity="1"
         fill-rule="nonzero"
         id="path42044"
         style="fill:#09009b;fill-opacity:1" />
    </g>
    <g
       clip-path="url(#clip-2)"
       id="g42050"
       style="fill:#09009b;fill-opacity:1"
       transform="matrix(2.5130478,0,0,1.8227828,-262.61646,-155.17707)">
      <path
         fill="rgb(7.058716%, 48.239136%, 79.60968%)"
         d="m 114.95703,234.61328 c 3.97656,0 5.85156,0.9375 7.95703,2.11328 2.33985,1.17188 5.03125,2.58203 10.17969,2.58203 5.14844,0 7.72266,-1.41015 10.17969,-2.58203 2.10547,-1.17578 3.97656,-2.11328 7.95703,-2.11328 2.10547,0 3.625,0.23438 4.91406,0.70313 -1.40625,-1.75782 -2.57422,-3.51954 -3.62891,-5.39454 -0.35156,0 -0.82031,0 -1.17187,0 -5.14453,0 -7.71875,1.40625 -10.17578,2.58204 -2.10938,1.17187 -3.98047,2.10937 -7.95703,2.10937 -3.98047,0 -5.85156,-0.9375 -7.95703,-2.10937 -2.33985,-1.17579 -5.03125,-2.58204 -10.17969,-2.58204 -1.28906,0 -2.33984,1.05469 -2.33984,2.34766 0,1.28906 0.9375,2.34375 2.22265,2.34375 z m 0,0"
         fill-opacity="1"
         fill-rule="nonzero"
         id="path42048"
         style="fill:#09009b;fill-opacity:1" />
    </g>
    <g
       clip-path="url(#clip-3)"
       id="g42054"
       style="fill:#09009b;fill-opacity:1"
       transform="matrix(2.531686,0,0,1.8227828,-310.23191,-155.17707)">
      <path
         fill="rgb(7.058716%, 48.239136%, 79.60968%)"
         d="m 260.04297,229.92187 c -5.14844,0 -7.72266,1.40625 -10.17969,2.58204 -2.10547,1.17187 -3.97656,2.10937 -7.95703,2.10937 -3.97656,0 -5.84766,-0.9375 -7.95703,-2.10937 -2.33985,-1.17579 -5.03125,-2.58204 -10.17969,-2.58204 -0.34766,0 -0.69922,0 -1.05078,0 -1.05469,1.875 -2.22266,3.63672 -3.51172,5.27735 1.17188,-0.35156 2.69141,-0.58594 4.5625,-0.58594 3.98047,0 5.85156,0.9375 7.95703,2.11328 2.33985,1.17188 5.03125,2.58203 10.17969,2.58203 5.14844,0 7.72266,-1.41015 10.17969,-2.58203 2.10547,-1.17578 3.98047,-2.11328 7.95703,-2.11328 1.28515,0 2.33984,-1.05469 2.33984,-2.34375 0,-1.29297 -1.05469,-2.34766 -2.33984,-2.34766 z m 0,0"
         fill-opacity="1"
         fill-rule="nonzero"
         id="path42052"
         style="fill:#09009b;fill-opacity:1" />
    </g>
    <g
       clip-path="url(#clip-4)"
       id="g42058"
       style="fill:#09009b;fill-opacity:1"
       transform="matrix(2.9994839,0,0,1.8227828,-328.24249,-155.17707)">
      <path
         fill="rgb(7.058716%, 48.239136%, 79.60968%)"
         d="m 114.95703,215.84375 c 3.97656,0 5.85156,0.9375 7.95703,2.11328 2.33985,1.17188 5.03125,2.57813 10.17969,2.57813 5.14844,0 7.72266,-1.40625 10.17969,-2.57813 1.28515,-0.70703 2.57422,-1.29297 4.09375,-1.64453 -0.35157,-1.52344 -0.46875,-3.05078 -0.70313,-4.69141 -2.45703,0.46875 -4.09375,1.40625 -5.61328,2.10938 -2.10937,1.17578 -3.98047,2.11328 -7.95703,2.11328 -3.98047,0 -5.85156,-0.9375 -7.95703,-2.11328 -2.33984,-1.17188 -5.03125,-2.57813 -10.17969,-2.57813 -1.28515,0 -2.33984,1.05469 -2.33984,2.34375 0,1.29297 1.05469,2.34766 2.33984,2.34766 z m 0,0"
         fill-opacity="1"
         fill-rule="nonzero"
         id="path42056"
         style="fill:#09009b;fill-opacity:1" />
    </g>
    <g
       clip-path="url(#clip-5)"
       id="g42062"
       style="fill:#09009b;fill-opacity:1"
       transform="matrix(3.0598459,0,0,1.8227828,-436.43151,-155.17707)">
      <path
         fill="rgb(7.058716%, 48.239136%, 79.60968%)"
         d="m 260.04297,211.15234 c -5.14844,0 -7.72266,1.40625 -10.17969,2.57813 -2.10547,1.17578 -3.97656,2.11328 -7.95703,2.11328 -3.97656,0 -5.84766,-0.9375 -7.95703,-2.11328 -1.51953,-0.82031 -3.27344,-1.64063 -5.73047,-2.22656 -0.11719,1.52343 -0.35156,3.16796 -0.58594,4.6914 1.63672,0.35156 2.8086,1.05469 4.21094,1.64063 2.33984,1.17578 5.03125,2.58203 10.17969,2.58203 5.14843,0 7.72265,-1.40625 10.17968,-2.58203 2.10547,-1.17188 3.98047,-2.10938 7.95704,-2.10938 1.28515,0 2.33984,-1.05469 2.33984,-2.34765 0,-1.28907 -1.17188,-2.22657 -2.45703,-2.22657 z m 0,0"
         fill-opacity="1"
         fill-rule="nonzero"
         id="path42060"
         style="fill:#09009b;fill-opacity:1" />
    </g>
    <g
       clip-path="url(#clip-6)"
       id="g42066"
       style="fill:#09009b;fill-opacity:1"
       transform="matrix(3.1196062,0,0,1.8227828,-347.61625,-155.17707)">
      <path
         fill="rgb(7.058716%, 48.239136%, 79.60968%)"
         d="m 114.95703,197.07422 c 3.97656,0 5.85156,0.9375 7.95703,2.10937 2.33985,1.17578 5.03125,2.58203 10.17969,2.58203 5.14844,0 7.72266,-1.40625 10.17969,-2.58203 1.28515,-0.70312 2.57422,-1.28906 4.21093,-1.75781 0.35157,-1.64453 0.70313,-3.28516 1.17188,-4.92969 -3.51172,0.35157 -5.61719,1.41016 -7.60547,2.46485 -2.10937,1.17187 -3.98047,2.11328 -7.95703,2.11328 -3.98047,0 -5.85156,-0.94141 -7.95703,-2.11328 -2.33984,-1.17188 -5.03125,-2.58203 -10.17969,-2.58203 -1.28515,0 -2.33984,1.05859 -2.33984,2.34765 0,1.28906 1.05469,2.34766 2.33984,2.34766 z m 0,0"
         fill-opacity="1"
         fill-rule="nonzero"
         id="path42064"
         style="fill:#09009b;fill-opacity:1" />
    </g>
    <g
       clip-path="url(#clip-7)"
       id="g42070"
       style="fill:#09009b;fill-opacity:1"
       transform="matrix(3.1539465,0,0,1.8227828,-456.29193,-155.17707)">
      <path
         fill="rgb(7.058716%, 48.239136%, 79.60968%)"
         d="m 260.04297,192.37891 c -5.14844,0 -7.72266,1.41015 -10.17969,2.58203 -2.10547,1.17187 -3.97656,2.11328 -7.95703,2.11328 -3.97656,0 -5.84766,-0.94141 -7.95703,-2.11328 -1.8711,-0.9375 -4.09375,-2.11328 -7.48828,-2.46485 0.46875,1.64453 0.82031,3.28516 1.05468,4.92969 1.63672,0.35156 2.92579,1.05469 4.21094,1.75781 2.33985,1.17578 5.03125,2.58203 10.17969,2.58203 5.14844,0 7.72266,-1.40625 10.17969,-2.58203 2.10547,-1.17187 3.98047,-2.10937 7.95703,-2.10937 1.28515,0 2.33984,-1.0586 2.33984,-2.34766 0,-1.28906 -1.05469,-2.34765 -2.33984,-2.34765 z m 0,0"
         fill-opacity="1"
         fill-rule="nonzero"
         id="path42068"
         style="fill:#09009b;fill-opacity:1" />
    </g>
    <g
       clip-path="url(#clip-8)"
       id="g42074"
       style="fill:#09009b;fill-opacity:1"
       transform="matrix(2.8734274,0,0,1.8227828,-384.40941,-155.17707)">
      <path
         fill="rgb(7.058716%, 48.239136%, 79.60968%)"
         d="m 260.04297,173.60937 c -5.14844,0 -7.72266,1.40625 -10.17969,2.58204 -2.10547,1.17187 -3.97656,2.10937 -7.95703,2.10937 -3.97656,0 -5.84766,-0.9375 -7.95703,-2.10937 -2.33985,-1.17579 -5.03125,-2.58204 -10.17969,-2.58204 -2.10547,0 -3.85937,0.23438 -5.26172,0.58594 0.81641,1.52735 1.51953,3.05078 2.22266,4.33985 0.8164,-0.11719 1.87109,-0.23438 3.03906,-0.23438 3.98047,0 5.85156,0.94141 7.95703,2.11328 2.33985,1.17188 5.03125,2.58203 10.17969,2.58203 5.14844,0 7.72266,-1.41015 10.17969,-2.58203 2.10547,-1.17187 3.98047,-2.11328 7.95703,-2.11328 1.28515,0 2.33984,-1.05469 2.33984,-2.34375 0,-1.29297 -1.05469,-2.34766 -2.33984,-2.34766 z m 0,0"
         fill-opacity="1"
         fill-rule="nonzero"
         id="path42072"
         style="fill:#09009b;fill-opacity:1" />
    </g>
    <g
       clip-path="url(#clip-9)"
       id="g42078"
       style="fill:#09009b;fill-opacity:1"
       transform="matrix(2.876086,0,0,1.8227828,-319.91594,-155.17707)">
      <path
         fill="rgb(7.058716%, 48.239136%, 79.60968%)"
         d="m 114.95703,178.30078 c 3.97656,0 5.85156,0.94141 7.95703,2.11328 2.33985,1.17188 5.03125,2.58203 10.17969,2.58203 5.14844,0 7.72266,-1.41015 10.17969,-2.58203 2.10547,-1.17187 3.97656,-2.11328 7.95703,-2.11328 1.28515,0 2.33984,0.11719 3.27344,0.23438 0.70312,-1.28907 1.40625,-2.69532 2.22265,-4.33985 -1.51953,-0.35156 -3.27344,-0.58594 -5.49609,-0.58594 -5.14844,0 -7.72266,1.40625 -10.17969,2.58204 -2.10937,1.17187 -3.98047,2.10937 -7.95703,2.10937 -3.98047,0 -5.85156,-0.9375 -7.95703,-2.10937 -2.33984,-1.17579 -5.03125,-2.58204 -10.17969,-2.58204 -1.28515,0 -2.33984,1.05469 -2.33984,2.34766 0,1.28906 1.05469,2.34375 2.33984,2.34375 z m 0,0"
         fill-opacity="1"
         fill-rule="nonzero"
         id="path42076"
         style="fill:#09009b;fill-opacity:1" />
    </g>
    <g
       clip-path="url(#clip-10)"
       id="g42082"
       style="fill:#09009b;fill-opacity:1"
       transform="matrix(2.615446,0,0,1.8227828,-321.54543,-155.17707)">
      <path
         fill="rgb(7.058716%, 48.239136%, 79.60968%)"
         d="m 260.04297,154.83984 c -5.14844,0 -7.72266,1.40625 -10.17969,2.57813 -2.10547,1.17578 -3.97656,2.11328 -7.95703,2.11328 -3.97656,0 -5.84766,-0.9375 -7.95703,-2.11328 -2.33985,-1.17188 -5.03125,-2.57813 -10.17969,-2.57813 -5.14453,0 -7.71875,1.40625 -10.17578,2.57813 -1.05469,0.58984 -1.99219,1.05859 -3.27734,1.41015 0.70312,1.40625 1.51953,2.81641 2.22265,4.22266 1.17188,-0.46875 2.22266,-0.9375 3.16016,-1.40625 2.10547,-1.17578 3.97656,-2.11328 7.95703,-2.11328 3.97656,0 5.84766,0.9375 7.95312,2.11328 2.33985,1.17188 5.03125,2.57813 10.17969,2.57813 5.14844,0 7.72266,-1.40625 10.17969,-2.57813 2.10547,-1.17578 3.98047,-2.11328 7.95703,-2.11328 1.28906,0 2.33984,-1.05469 2.33984,-2.34766 0,-1.28906 -0.9375,-2.34375 -2.22265,-2.34375 z m 0,0"
         fill-opacity="1"
         fill-rule="nonzero"
         id="path42080"
         style="fill:#09009b;fill-opacity:1" />
    </g>
    <g
       clip-path="url(#clip-11)"
       id="g42086"
       style="fill:#09009b;fill-opacity:1"
       transform="matrix(2.5619787,0,0,1.8227828,-276.65542,-155.17707)">
      <path
         fill="rgb(7.058716%, 48.239136%, 79.60968%)"
         d="m 114.95703,159.53125 c 3.97656,0 5.85156,0.9375 7.95703,2.11328 2.33985,1.17188 5.03125,2.57813 10.17969,2.57813 5.14844,0 7.72266,-1.40625 10.17969,-2.57813 2.10547,-1.17578 3.97656,-2.11328 7.95703,-2.11328 3.97656,0 5.84765,0.9375 7.95312,2.11328 1.05469,0.58594 2.10547,1.05469 3.39453,1.52344 0.70313,-1.40625 1.51954,-2.81641 2.22266,-4.22266 -1.28516,-0.35156 -2.33984,-0.9375 -3.51172,-1.52734 -2.33984,-1.17188 -5.03125,-2.57813 -10.17578,-2.57813 -5.14844,0 -7.72266,1.40625 -10.17969,2.57813 -2.10937,1.17578 -3.98047,2.11328 -7.95703,2.11328 -3.98047,0 -5.85156,-0.9375 -7.95703,-2.11328 -2.33984,-1.17188 -5.03125,-2.57813 -10.17969,-2.57813 -1.28515,0 -2.33984,1.05469 -2.33984,2.34375 0,1.29297 1.17188,2.34766 2.45703,2.34766 z m 0,0"
         fill-opacity="1"
         fill-rule="nonzero"
         id="path42084"
         style="fill:#09009b;fill-opacity:1" />
    </g>
    <g
       clip-path="url(#clip-12)"
       id="g42090"
       style="fill:#09009b;fill-opacity:1"
       transform="matrix(2.2166901,0,0,1.8227828,-223.80759,-155.17707)">
      <path
         fill="rgb(7.058716%, 48.239136%, 79.60968%)"
         d="m 161.40625,138.64844 c -2.33984,-1.17188 -5.03125,-2.58203 -10.17578,-2.58203 -5.14844,0 -7.72266,1.41015 -10.17969,2.58203 -2.10937,1.17578 -3.98047,2.11328 -7.95703,2.11328 -3.98047,0 -5.85156,-0.9375 -7.95703,-2.11328 -2.33984,-1.17188 -5.03125,-2.58203 -10.17969,-2.58203 -1.28515,0 -2.33984,1.05859 -2.33984,2.34765 0,1.28906 1.05469,2.34766 2.33984,2.34766 3.97656,0 5.85156,0.9375 7.95703,2.10937 2.33985,1.17578 5.03125,2.58203 10.17969,2.58203 5.14844,0 7.72266,-1.40625 10.17969,-2.58203 2.10547,-1.17187 3.97656,-2.10937 7.95703,-2.10937 3.97656,0 5.84765,0.9375 7.95312,2.10937 2.33985,1.17578 5.03125,2.58203 10.17969,2.58203 1.05469,0 1.98828,-0.11718 2.80859,-0.11718 1.05469,-1.9961 1.98829,-3.8711 2.92579,-5.51172 -1.51954,0.58594 -3.16016,1.05469 -5.85157,1.05469 -3.85937,-0.11719 -5.73047,-1.05469 -7.83984,-2.23047 z m 0,0"
         fill-opacity="1"
         fill-rule="nonzero"
         id="path42088"
         style="fill:#09009b;fill-opacity:1" />
    </g>
    <g
       clip-path="url(#clip-13)"
       id="g42094"
       style="fill:#09009b;fill-opacity:1"
       transform="matrix(2.2316542,0,0,1.8227828,-236.66553,-155.17707)">
      <path
         fill="rgb(7.058716%, 48.239136%, 79.60968%)"
         d="m 260.04297,136.06641 c -5.14844,0 -7.72266,1.41015 -10.17969,2.58203 -2.10547,1.17578 -3.97656,2.11328 -7.95703,2.11328 -3.97656,0 -5.84766,-0.9375 -7.95703,-2.11328 -2.33985,-1.17188 -5.03125,-2.58203 -10.17969,-2.58203 -5.14453,0 -7.71875,1.41015 -10.17578,2.58203 -2.10938,1.17578 -3.98047,2.11328 -7.95703,2.11328 -2.45703,0 -4.09766,-0.35156 -5.5,-0.9375 0.9375,1.75781 1.87109,3.51562 2.92578,5.39453 0.81641,0.23437 1.63672,0.23437 2.57422,0.23437 5.14844,0 7.72265,-1.40625 10.17969,-2.58203 2.10546,-1.17187 3.97656,-2.10937 7.95312,-2.10937 3.98047,0 5.85156,0.9375 7.95703,2.10937 2.33985,1.17578 5.03125,2.58203 10.17969,2.58203 5.14844,0 7.72266,-1.40625 10.17969,-2.58203 2.10547,-1.17187 3.98047,-2.10937 7.95703,-2.10937 1.28515,0 2.33984,-1.0586 2.33984,-2.34766 0,-1.28906 -1.05469,-2.34765 -2.33984,-2.34765 z m 0,0"
         fill-opacity="1"
         fill-rule="nonzero"
         id="path42092"
         style="fill:#09009b;fill-opacity:1" />
    </g>
    <path
       fill="rgb(7.058716%, 48.239136%, 79.60968%)"
       d="m 139.15957,271.83116 c 12.80221,14.11233 29.86231,22.03005 47.99047,22.03005 18.12814,0 35.18824,-7.91772 47.98333,-22.03005 21.11864,-23.52529 23.88841,-60.08776 7.04192,-93.4461 -12.36787,-24.16611 -50.97384,-95.375693 -51.40105,-96.230122 -0.85443,-1.281635 -2.12896,-2.143192 -3.83782,-2.143192 -1.49524,0 -2.98338,0.861557 -3.83781,2.356804 -0.42721,0.640817 -38.60597,72.06401 -51.18744,96.01651 -17.06012,33.35834 -14.50394,69.28 7.2484,93.4461 z M 187.15004,93.276774 c 10.0253,18.598076 37.53793,69.279986 47.34962,88.953226 15.13765,30.15424 13.00869,63.08536 -5.76028,84.04025 -11.09333,12.40346 -25.81088,19.24602 -41.58934,19.24602 -15.57198,0 -30.49602,-6.84256 -41.58936,-19.24602 -19.19618,-21.38209 -21.53875,-53.67242 -5.76029,-83.82664 10.02531,-19.67324 37.32434,-70.56876 47.34965,-89.166836 z m 0,0"
       fill-opacity="1"
       fill-rule="nonzero"
       id="path42096"
       style="fill:#09009b;fill-opacity:1;stroke-width:1.82278" />
    <path
       fill="rgb(7.058716%, 48.239136%, 79.60968%)"
       d="m 221.06377,259.6413 c 1.06091,0 2.34255,-0.42722 3.19698,-1.28165 15.35125,-16.68273 18.12814,-38.70564 7.46201,-60.30135 -1.06804,-2.1432 -3.6242,-2.99763 -5.76026,-1.92958 -2.12896,1.07515 -2.98339,3.63843 -1.91537,5.77452 9.17088,18.6052 6.8212,36.56958 -6.18749,50.8955 -1.48812,1.70886 -1.48812,4.49289 0.21362,5.98813 0.85442,0.42721 1.92247,0.85443 2.99051,0.85443 z m 0,0"
       fill-opacity="1"
       fill-rule="nonzero"
       id="path42098"
       style="fill:#09009b;fill-opacity:1;stroke-width:1.82278" />
    <path
       id="path36499-06"
       style="fill:#09009b;stroke-width:2.6125"
       d="M 186.9365,0 A 186.93648,186.93648 0 0 0 0,186.93652 186.93648,186.93648 0 0 0 186.9365,373.87295 186.93648,186.93648 0 0 0 373.87287,186.93652 186.93648,186.93648 0 0 0 186.9365,0 Z m 0,4.7975714 A 182.1359,182.1359 0 0 1 369.07532,186.93652 182.1359,182.1359 0 0 1 186.9365,369.07177 182.1359,182.1359 0 0 1 4.8011819,186.93652 182.1359,182.1359 0 0 1 186.9365,4.7975714 Z" />
    <g
       clip-path="url(#clip-1)"
       id="g44172"
       style="fill:#09009b;fill-opacity:1"
       transform="matrix(1.4374009,0,0,1.8227828,-82.209897,-121.17707)">
      <path
         fill="rgb(7.058716%, 48.239136%, 79.60968%)"
         d="m 260.04297,248.69141 c -5.14844,0 -7.72266,1.41015 -10.17969,2.58203 -2.10547,1.17187 -3.97656,2.11328 -7.95703,2.11328 -3.97656,0 -5.84766,-0.94141 -7.95703,-2.11328 -2.33985,-1.17188 -5.03125,-2.58203 -10.17969,-2.58203 -5.14453,0 -7.71875,1.41015 -10.17578,2.58203 -2.10938,1.17187 -3.98047,2.11328 -7.95703,2.11328 -3.98047,0 -5.85156,-0.94141 -7.95703,-2.11328 -0.70313,-0.35157 -1.40625,-0.70313 -2.22266,-1.05469 -2.57422,0.46875 -5.14844,0.82031 -7.83984,0.82031 -2.69141,0 -5.38282,-0.23437 -7.95703,-0.82031 -0.82032,0.35156 -1.51954,0.70312 -2.22266,1.05469 -2.10547,1.17187 -3.97656,2.11328 -7.95703,2.11328 -3.97656,0 -5.84766,-0.94141 -7.95703,-2.11328 -2.33985,-1.17188 -5.03125,-2.58203 -10.17969,-2.58203 -5.14453,0 -7.71875,1.41015 -10.17578,2.58203 -2.10938,1.17187 -3.98047,2.11328 -7.95703,2.11328 -3.98047,0 -5.85156,-0.94141 -7.95703,-2.11328 -2.33985,-1.17188 -5.03125,-2.58203 -10.17969,-2.58203 -1.28906,0 -2.33984,1.05468 -2.33984,2.34765 0,1.28906 1.05078,2.34766 2.33984,2.34766 3.97656,0 5.85156,0.9375 7.95703,2.10937 2.33984,1.17188 5.03125,2.58203 10.17969,2.58203 5.14843,0 7.72265,-1.41015 10.17968,-2.58203 2.10547,-1.17187 3.97657,-2.10937 7.95313,-2.10937 3.98047,0 5.85156,0.9375 7.95703,2.10937 2.33984,1.17188 5.03125,2.58203 10.17969,2.58203 5.14844,0 7.72265,-1.41015 10.17969,-2.58203 2.10546,-1.17187 3.98046,-2.10937 7.95703,-2.10937 3.97656,0 5.85156,0.9375 7.95703,2.10937 2.33984,1.17188 5.03125,2.58203 10.17969,2.58203 5.14843,0 7.72265,-1.41015 10.17968,-2.58203 2.10547,-1.17187 3.97657,-2.10937 7.95313,-2.10937 3.98047,0 5.85156,0.9375 7.95703,2.10937 2.33984,1.17188 5.03125,2.58203 10.17969,2.58203 5.14843,0 7.72265,-1.41015 10.17968,-2.58203 2.10547,-1.17187 3.98047,-2.10937 7.95704,-2.10937 1.28515,0 2.33984,-1.0586 2.33984,-2.34766 0,-1.29297 -1.17188,-2.34765 -2.45703,-2.34765 z m 0,0"
         fill-opacity="1"
         fill-rule="nonzero"
         id="path44170"
         style="fill:#09009b;fill-opacity:1" />
    </g>
    <g
       clip-path="url(#clip-0)"
       id="g44176"
       style="fill:#09009b;fill-opacity:1"
       transform="matrix(1.2785214,0,0,1.8227828,-53.199996,-189.17707)">
      <path
         fill="rgb(7.058716%, 48.239136%, 79.60968%)"
         d="m 260.04297,117.29688 c -5.14844,0 -7.72266,1.41015 -10.17969,2.58203 -2.10547,1.17187 -3.97656,2.10937 -7.95703,2.10937 -3.97656,0 -5.84766,-0.9375 -7.95703,-2.10937 -2.33985,-1.17188 -5.03125,-2.58203 -10.17969,-2.58203 -5.14453,0 -7.71875,1.41015 -10.17578,2.58203 -2.10938,1.17187 -3.98047,2.10937 -7.95703,2.10937 -3.98047,0 -5.85156,-0.9375 -7.95703,-2.10937 -2.33985,-1.17188 -5.03125,-2.58203 -10.17969,-2.58203 -5.14844,0 -7.72266,1.41015 -10.17969,2.58203 -2.10547,1.17187 -3.97656,2.10937 -7.95703,2.10937 -3.97656,0 -5.84766,-0.9375 -7.95703,-2.10937 -2.33984,-1.17188 -5.03125,-2.58203 -10.17578,-2.58203 -5.14844,0 -7.72266,1.41015 -10.17969,2.58203 -2.10937,1.17187 -3.98047,2.10937 -7.95703,2.10937 -3.98047,0 -5.85156,-0.9375 -7.95703,-2.10937 -2.45703,-1.17188 -5.03125,-2.58203 -10.17969,-2.58203 -1.28515,0 -2.33984,1.05468 -2.33984,2.34765 0,1.28906 1.05469,2.34375 2.33984,2.34375 3.97656,0 5.85156,0.94141 7.95703,2.11328 2.33985,1.17188 5.03125,2.58203 10.17969,2.58203 5.14844,0 7.72266,-1.41015 10.17969,-2.58203 2.10547,-1.17187 3.97656,-2.11328 7.95703,-2.11328 3.97656,0 5.84765,0.94141 7.95312,2.11328 2.33985,1.17188 5.03125,2.58203 10.17969,2.58203 5.14844,0 7.72266,-1.41015 10.17969,-2.58203 2.10547,-1.17187 3.98047,-2.11328 7.95703,-2.11328 3.97656,0 5.85156,0.94141 7.95703,2.11328 2.33984,1.17188 5.03125,2.58203 10.17969,2.58203 5.14844,0 7.72265,-1.41015 10.17969,-2.58203 2.10546,-1.17187 3.97656,-2.11328 7.95312,-2.11328 3.98047,0 5.85156,0.94141 7.95703,2.11328 2.33985,1.17188 5.03125,2.58203 10.17969,2.58203 5.14844,0 7.72266,-1.41015 10.17969,-2.58203 2.10547,-1.17187 3.98047,-2.11328 7.95703,-2.11328 1.28515,0 2.33984,-1.05469 2.33984,-2.34375 0,-1.29297 -1.05469,-2.34765 -2.33984,-2.34765 z m 0,0"
         fill-opacity="1"
         fill-rule="nonzero"
         id="path44174"
         style="fill:#09009b;fill-opacity:1" />
    </g>
  </g>
</svg>
