<?xml version="1.0" encoding="UTF-8" standalone="no"?>
<svg
   width="375"
   zoomAndPan="magnify"
   viewBox="0 0 375 374.999991"
   height="374.999991"
   preserveAspectRatio="xMidYMid meet"
   version="1.0"
   id="svg41504"
   sodipodi:docname="icon-sofa.svg"
   inkscape:version="1.1.1 (3bf5ae0, 2021-09-20)"
   xmlns:inkscape="http://www.inkscape.org/namespaces/inkscape"
   xmlns:sodipodi="http://sodipodi.sourceforge.net/DTD/sodipodi-0.dtd"
   xmlns="http://www.w3.org/2000/svg"
   xmlns:svg="http://www.w3.org/2000/svg">
  <sodipodi:namedview
     id="namedview41506"
     pagecolor="#505050"
     bordercolor="#ffffff"
     borderopacity="1"
     inkscape:pageshadow="0"
     inkscape:pageopacity="0"
     inkscape:pagecheckerboard="1"
     showgrid="false"
     inkscape:zoom="0.70266667"
     inkscape:cx="-26.328273"
     inkscape:cy="252.60911"
     inkscape:window-width="1366"
     inkscape:window-height="708"
     inkscape:window-x="0"
     inkscape:window-y="0"
     inkscape:window-maximized="1"
     inkscape:current-layer="svg41504" />
  <defs
     id="defs41480">
    <clipPath
       id="clip-0">
      <path
         d="M 168 148.78125 L 207 148.78125 L 207 189 L 168 189 Z M 168 148.78125 "
         clip-rule="nonzero"
         id="path41468" />
    </clipPath>
    <clipPath
       id="clip-1">
      <path
         d="M 127 148.78125 L 166 148.78125 L 166 189 L 127 189 Z M 127 148.78125 "
         clip-rule="nonzero"
         id="path41471" />
    </clipPath>
    <clipPath
       id="clip-2">
      <path
         d="M 112.5 174 L 262.5 174 L 262.5 213 L 112.5 213 Z M 112.5 174 "
         clip-rule="nonzero"
         id="path41474" />
    </clipPath>
    <clipPath
       id="clip-3">
      <path
         d="M 209 148.78125 L 248 148.78125 L 248 189 L 209 189 Z M 209 148.78125 "
         clip-rule="nonzero"
         id="path41477" />
    </clipPath>
  </defs>
  <g
     id="g41589"
     style="fill:#09009b;fill-opacity:1"
     transform="matrix(2.2519197,0,0,2.2519197,-236.14682,-235.90052)">
    <g
       clip-path="url(#clip-0)"
       id="g41484"
       style="fill:#09009b;fill-opacity:1">
      <path
         fill="rgb(7.058716%, 48.239136%, 79.60968%)"
         d="m 168.66016,148.82422 v 39.69922 h 37.68359 v -39.69922 h -37.68359"
         fill-opacity="1"
         fill-rule="nonzero"
         id="path41482"
         style="fill:#09009b;fill-opacity:1" />
    </g>
    <g
       clip-path="url(#clip-1)"
       id="g41488"
       style="fill:#09009b;fill-opacity:1">
      <path
         fill="rgb(7.058716%, 48.239136%, 79.60968%)"
         d="m 127.46875,159.24219 v 12.52734 c 5,1.63672 8.01562,5.46094 8.01562,10.66016 v 6.09375 h 29.66797 v -39.69922 h -27.24218 c -5.75782,0 -10.44141,4.67578 -10.44141,10.41797"
         fill-opacity="1"
         fill-rule="nonzero"
         id="path41486"
         style="fill:#09009b;fill-opacity:1" />
    </g>
    <g
       clip-path="url(#clip-2)"
       id="g41492"
       style="fill:#09009b;fill-opacity:1">
      <path
         fill="rgb(7.058716%, 48.239136%, 79.60968%)"
         d="m 252.68359,208.21094 v -17.38282 l 1.80078,0.0508 c 0.25391,0.004 5.92969,0.0625 7.30469,-4.94922 0.71485,-2.60547 0.043,-5.60157 -1.79687,-8.01172 -1.72657,-2.25391 -4.10938,-3.54688 -6.53907,-3.54688 -2.44921,0 -10.43359,0.58203 -10.43359,8.0586 v 21.55078 H 131.98047 V 182.4297 c 0,-7.47657 -7.98438,-8.0586 -10.43359,-8.0586 -2.42969,0 -4.8125,1.29297 -6.53907,3.54688 -1.83984,2.41015 -2.51172,5.40625 -1.79687,8.01172 1.3789,5.0039 7.0625,4.96875 7.3164,4.94922 l 1.78125,-0.0352 0.008,17.36719 c 0,2.33593 1.90234,4.23437 4.24218,4.23437 h 121.88282 c 2.33984,0 4.24218,-1.89844 4.24218,-4.23437"
         fill-opacity="1"
         fill-rule="nonzero"
         id="path41490"
         style="fill:#09009b;fill-opacity:1" />
    </g>
    <path
       fill="rgb(7.058716%, 48.239136%, 79.60968%)"
       d="m 126.55859,215.94141 v 10.01562 h 5.92188 l 2.40625,-10.01562 h -8.32813"
       fill-opacity="1"
       fill-rule="nonzero"
       id="path41494"
       style="fill:#09009b;fill-opacity:1" />
    <path
       fill="rgb(7.058716%, 48.239136%, 79.60968%)"
       d="m 248.44141,215.94141 h -8.32813 l 2.40625,10.01562 h 5.92188 v -10.01562"
       fill-opacity="1"
       fill-rule="nonzero"
       id="path41496"
       style="fill:#09009b;fill-opacity:1" />
    <g
       clip-path="url(#clip-3)"
       id="g41500"
       style="fill:#09009b;fill-opacity:1">
      <path
         fill="rgb(7.058716%, 48.239136%, 79.60968%)"
         d="m 247.53125,171.76953 v -12.52734 c 0,-5.74219 -4.68359,-10.41797 -10.44141,-10.41797 h -27.24218 v 39.69922 h 29.66796 v -6.09375 c 0,-5.19922 3.01563,-9.02344 8.01563,-10.66016"
         fill-opacity="1"
         fill-rule="nonzero"
         id="path41498"
         style="fill:#09009b;fill-opacity:1" />
    </g>
    <path
       fill="rgb(7.058716%, 48.239136%, 79.60968%)"
       d="M 239.51562,192.01953 H 135.48437 v 8.46484 h 104.03125 v -8.46484"
       fill-opacity="1"
       fill-rule="nonzero"
       id="path41502"
       style="fill:#09009b;fill-opacity:1" />
  </g>
  <path
     id="path36499"
     style="fill:#09009b;stroke-width:2.60064"
     d="M 186.08813,0 A 186.08812,186.08812 0 0 0 0,186.08812 186.08812,186.08812 0 0 0 186.08813,372.17623 186.08812,186.08812 0 0 0 372.17624,186.08812 186.08812,186.08812 0 0 0 186.08813,0 Z m 0,4.77578 A 181.30933,181.30933 0 0 1 367.40046,186.08812 181.30933,181.30933 0 0 1 186.08813,367.39682 181.30933,181.30933 0 0 1 4.77941,186.08812 181.30933,181.30933 0 0 1 186.08813,4.77578 Z" />
</svg>
