<?xml version="1.0" encoding="UTF-8" standalone="no"?>
<svg
   width="375"
   zoomAndPan="magnify"
   viewBox="0 0 375 374.999991"
   height="374.999991"
   preserveAspectRatio="xMidYMid meet"
   version="1.0"
   id="svg36416"
   sodipodi:docname="icon-sleep.svg"
   inkscape:version="1.1.1 (3bf5ae0, 2021-09-20)"
   xmlns:inkscape="http://www.inkscape.org/namespaces/inkscape"
   xmlns:sodipodi="http://sodipodi.sourceforge.net/DTD/sodipodi-0.dtd"
   xmlns="http://www.w3.org/2000/svg"
   xmlns:svg="http://www.w3.org/2000/svg">
  <sodipodi:namedview
     id="namedview36418"
     pagecolor="#505050"
     bordercolor="#ffffff"
     borderopacity="1"
     inkscape:pageshadow="0"
     inkscape:pageopacity="0"
     inkscape:pagecheckerboard="1"
     showgrid="false"
     inkscape:zoom="0.99372073"
     inkscape:cx="243.02603"
     inkscape:cy="155.47628"
     inkscape:window-width="1366"
     inkscape:window-height="708"
     inkscape:window-x="0"
     inkscape:window-y="0"
     inkscape:window-maximized="1"
     inkscape:current-layer="svg36416" />
  <defs
     id="defs36404">
    <clipPath
       id="clip-0">
      <path
         d="M 29 28.609375 L 336 28.609375 L 336 198 L 29 198 Z M 29 28.609375 "
         clip-rule="nonzero"
         id="path36401" />
    </clipPath>
  </defs>
  <g
     clip-path="url(#clip-0)"
     id="g36408"
     transform="translate(4.4966193,73.960328)"
     style="fill:#09009b;fill-opacity:1">
    <path
       fill="#b67415"
       d="m 317.41016,72.109375 v 49.304685 c 0,1.92578 -1.60157,3.82813 -3.82813,3.82813 H 50.3125 c -1.929688,0 -3.855469,-1.60156 -3.855469,-3.82813 V 32.4375 c 0,-1.925781 -1.601562,-3.855469 -3.855469,-3.855469 h -9.613281 c -1.902343,0 -3.828125,1.601563 -3.828125,3.855469 v 161.61719 c 0,1.92968 1.601563,3.85547 3.828125,3.85547 h 9.613281 c 1.925782,0 3.855469,-1.60157 3.855469,-3.85547 v -17.90625 c 0,-1.92969 1.601563,-3.85547 3.855469,-3.85547 h 263.59375 c 1.90234,0 3.82812,1.60156 3.82812,3.85547 v 17.90625 c 0,1.92968 1.60157,3.85547 3.85547,3.85547 h 9.61328 c 1.90235,0 3.82813,-1.60157 3.82813,-3.85547 V 72.109375 c 0,-1.898437 -1.60156,-3.828125 -3.82813,-3.828125 h -9.61328 c -2.57812,0 -4.17968,1.601562 -4.17968,3.828125"
       fill-opacity="1"
       fill-rule="nonzero"
       id="path36406"
       style="fill:#09009b;fill-opacity:1" />
  </g>
  <path
     fill="#b67415"
     d="m 139.66849,142.24158 h 125.53907 c 26.60937,0 48.0625,21.4375 48.0625,48.0039 H 139.66849 c -2.2539,0 -4.15625,-1.92578 -4.15625,-4.15234 v -39.69922 c 0,-2.22265 1.90235,-4.15234 4.15625,-4.15234"
     fill-opacity="1"
     fill-rule="nonzero"
     id="path36410"
     style="fill:#09009b" />
  <path
     fill="#b67415"
     d="m 110.53178,152.17517 v 18.23438 H 69.527869 c -5.460938,0 -9.613281,4.47656 -9.613281,9.60547 0,5.42968 4.480469,9.60546 9.613281,9.60546 h 55.421871 c 2.55469,0 4.48047,-1.92578 4.48047,-4.5039 v -32.94141 c 0,-5.45312 -4.48047,-9.60547 -9.61328,-9.60547 -5.13281,0 -9.28515,4.47657 -9.28515,9.60547"
     fill-opacity="1"
     fill-rule="nonzero"
     id="path36412"
     style="fill:#09009b" />
  <path
     fill="#b67415"
     d="m 86.500525,127.21033 c 11.160156,0 20.175785,9.00781 20.175785,20.16015 0,11.125 -9.015629,20.16407 -20.175785,20.16407 -11.136718,0 -20.179687,-9.03907 -20.179687,-20.16407 0,-11.15234 9.042969,-20.16015 20.179687,-20.16015"
     fill-opacity="1"
     fill-rule="nonzero"
     id="path36414"
     style="fill:#09009b" />
  <path
     id="path36499"
     style="fill:#09009b;stroke-width:2.60064"
     d="M 188.05129,1.1096469 A 186.08812,186.08812 0 0 0 1.9631627,187.19777 186.08812,186.08812 0 0 0 188.05129,373.28588 186.08812,186.08812 0 0 0 374.1394,187.19777 186.08812,186.08812 0 0 0 188.05129,1.1096469 Z m 0,4.7757772 A 181.30933,181.30933 0 0 1 369.36362,187.19777 181.30933,181.30933 0 0 1 188.05129,368.50646 181.30933,181.30933 0 0 1 6.742573,187.19777 181.30933,181.30933 0 0 1 188.05129,5.8854241 Z" />
</svg>
