<?xml version="1.0" encoding="UTF-8" standalone="no"?>
<svg
   width="375"
   zoomAndPan="magnify"
   viewBox="0 0 375 374.999991"
   height="374.999991"
   preserveAspectRatio="xMidYMid meet"
   version="1.0"
   id="svg39914"
   sodipodi:docname="icon-garage.svg"
   inkscape:version="1.1.1 (3bf5ae0, 2021-09-20)"
   xmlns:inkscape="http://www.inkscape.org/namespaces/inkscape"
   xmlns:sodipodi="http://sodipodi.sourceforge.net/DTD/sodipodi-0.dtd"
   xmlns="http://www.w3.org/2000/svg"
   xmlns:svg="http://www.w3.org/2000/svg">
  <sodipodi:namedview
     id="namedview39916"
     pagecolor="#505050"
     bordercolor="#ffffff"
     borderopacity="1"
     inkscape:pageshadow="0"
     inkscape:pageopacity="0"
     inkscape:pagecheckerboard="1"
     showgrid="false"
     inkscape:zoom="0.70266667"
     inkscape:cx="-0.71157495"
     inkscape:cy="256.87856"
     inkscape:window-width="1366"
     inkscape:window-height="708"
     inkscape:window-x="0"
     inkscape:window-y="0"
     inkscape:window-maximized="1"
     inkscape:current-layer="svg39914" />
  <defs
     id="defs39898">
    <clipPath
       id="clip-0">
      <path
         d="M 112.5 113 L 262.5 113 L 262.5 262.5 L 112.5 262.5 Z M 112.5 113 "
         clip-rule="nonzero"
         id="path39892" />
    </clipPath>
    <clipPath
       id="clip-1">
      <path
         d="M 147 251 L 228 251 L 228 262.5 L 147 262.5 Z M 147 251 "
         clip-rule="nonzero"
         id="path39895" />
    </clipPath>
  </defs>
  <g
     id="g39995"
     style="fill:#09009b;fill-opacity:1"
     transform="matrix(1.7800871,0,0,1.7800871,-147.67823,-172.18755)">
    <path
       fill="rgb(7.058716%, 48.239136%, 79.60968%)"
       d="m 235.00391,230.89062 c 0,0.66797 -0.0625,1.32813 -0.19141,1.98047 -0.13281,0.65235 -0.32422,1.28907 -0.57813,1.90235 -0.25781,0.61718 -0.57031,1.20312 -0.9375,1.75781 -0.37109,0.55078 -0.79296,1.06641 -1.26562,1.53516 -0.46875,0.47265 -0.98047,0.89453 -1.53516,1.26171 -0.55468,0.3711 -1.14062,0.6836 -1.7539,0.94141 -0.61719,0.25391 -1.25391,0.44531 -1.90625,0.57422 -0.65235,0.13281 -1.3125,0.19531 -1.98047,0.19531 -0.66406,0 -1.32422,-0.0625 -1.98047,-0.19531 -0.65234,-0.12891 -1.28516,-0.32031 -1.90234,-0.57422 -0.61719,-0.25781 -1.19922,-0.57031 -1.75391,-0.94141 -0.55469,-0.36718 -1.06641,-0.78906 -1.53906,-1.26171 -0.47266,-0.46875 -0.89063,-0.98438 -1.26172,-1.53516 -0.3711,-0.55469 -0.6836,-1.14063 -0.9375,-1.75781 -0.25781,-0.61328 -0.44922,-1.25 -0.57813,-1.90235 -0.1289,-0.65234 -0.19531,-1.3125 -0.19531,-1.98047 0,-0.66796 0.0664,-1.32812 0.19531,-1.98046 0.12891,-0.65235 0.32032,-1.28907 0.57813,-1.90235 0.2539,-0.61719 0.5664,-1.20312 0.9375,-1.7539 0.37109,-0.55469 0.78906,-1.07032 1.26172,-1.53907 0.47265,-0.47265 0.98437,-0.89453 1.53906,-1.26172 0.55469,-0.37109 1.13672,-0.68359 1.75391,-0.9375 0.61718,-0.25781 1.25,-0.44921 1.90234,-0.57812 0.65625,-0.13281 1.31641,-0.19531 1.98047,-0.19531 0.66797,0 1.32812,0.0625 1.98047,0.19531 0.65234,0.12891 1.28906,0.32031 1.90625,0.57812 0.61328,0.25391 1.19922,0.56641 1.7539,0.9375 0.55469,0.36719 1.06641,0.78907 1.53516,1.26172 0.47266,0.46875 0.89453,0.98438 1.26562,1.53907 0.36719,0.55078 0.67969,1.13671 0.9375,1.7539 0.25391,0.61328 0.44532,1.25 0.57813,1.90235 0.12891,0.65234 0.19141,1.3125 0.19141,1.98046 z m 0,0"
       fill-opacity="1"
       fill-rule="nonzero"
       id="path39900"
       style="fill:#09009b;fill-opacity:1" />
    <g
       clip-path="url(#clip-0)"
       id="g39904"
       style="fill:#09009b;fill-opacity:1">
      <path
         fill="rgb(7.058716%, 48.239136%, 79.60968%)"
         d="m 257.58594,148.53516 -66.08985,-34.48438 c -2.50781,-1.30469 -5.48047,-1.30469 -7.98437,0 l -66.09375,34.48438 c -2.94141,1.53515 -4.62891,4.53515 -4.62891,7.64453 0,1.34375 0,100.57422 0,100.57422 0,3.17187 2.57422,5.74609 5.7461,5.74609 h 17.24218 c -3.17578,0 -5.75,-2.57422 -5.75,-5.74609 v -40.23047 c 0,-0.64453 0.83985,-2.80078 2.12891,-5.7461 h -2.12891 c -3.17187,0 -5.74609,-2.57812 -5.74609,-5.75 v -5.74609 c 0,-3.17188 2.57422,-5.74609 5.74609,-5.74609 h 10.23047 c 2.45313,-5.0625 4.73828,-9.70704 6.00781,-12.35547 5.14844,-10.72657 8.73047,-16.37891 18.2461,-16.37891 h 45.97656 c 9.51563,0 13.44141,5.65234 18.24219,16.37891 1.1875,2.64843 3.4414,7.29297 5.89453,12.35547 h 10.34766 c 3.17187,0 5.74609,2.57421 5.74609,5.74609 v 5.74609 c 0,3.17188 -2.57422,5.75 -5.74609,5.75 h -2.16407 c 1.31641,2.94532 2.16407,5.09766 2.16407,5.7461 v 40.23047 c 0,3.17187 -2.57422,5.74609 -5.75,5.74609 h 17.24218 c 3.17188,0 5.7461,-2.57422 5.7461,-5.74609 0,0 0,-97.61719 0,-100.66797 0.008,-3.05078 -1.71094,-6.02735 -4.625,-7.55078 z m 0,0"
         fill-opacity="1"
         fill-rule="nonzero"
         id="path39902"
         style="fill:#09009b;fill-opacity:1" />
    </g>
    <g
       clip-path="url(#clip-1)"
       id="g39908"
       style="fill:#09009b;fill-opacity:1">
      <path
         fill="rgb(7.058716%, 48.239136%, 79.60968%)"
         d="m 221.98437,256.75391 v -5.75 h -68.96875 v 5.75 c 0,3.17187 -2.57421,5.74609 -5.74609,5.74609 h 80.46094 c -3.16797,0 -5.7461,-2.57422 -5.7461,-5.74609 z m 0,0"
         fill-opacity="1"
         fill-rule="nonzero"
         id="path39906"
         style="fill:#09009b;fill-opacity:1" />
    </g>
    <path
       fill="rgb(7.058716%, 48.239136%, 79.60968%)"
       d="m 160.29297,230.89062 c 0,0.66797 -0.0664,1.32813 -0.19531,1.98047 -0.12891,0.65235 -0.32032,1.28907 -0.57813,1.90235 -0.25391,0.61718 -0.56641,1.20312 -0.9375,1.75781 -0.37109,0.55078 -0.78906,1.06641 -1.26172,1.53516 -0.47265,0.47265 -0.98437,0.89453 -1.53906,1.26171 -0.55469,0.3711 -1.13672,0.6836 -1.75391,0.94141 -0.61718,0.25391 -1.25,0.44531 -1.90234,0.57422 -0.65625,0.13281 -1.31641,0.19531 -1.98047,0.19531 -0.66797,0 -1.32812,-0.0625 -1.98047,-0.19531 -0.65234,-0.12891 -1.28906,-0.32031 -1.90625,-0.57422 -0.61328,-0.25781 -1.19922,-0.57031 -1.7539,-0.94141 -0.55469,-0.36718 -1.06641,-0.78906 -1.53516,-1.26171 -0.47266,-0.46875 -0.89453,-0.98438 -1.26563,-1.53516 -0.36718,-0.55469 -0.67968,-1.14063 -0.9375,-1.75781 -0.2539,-0.61328 -0.44531,-1.25 -0.57812,-1.90235 -0.12891,-0.65234 -0.19141,-1.3125 -0.19141,-1.98047 0,-0.66796 0.0625,-1.32812 0.19141,-1.98046 0.13281,-0.65235 0.32422,-1.28907 0.57812,-1.90235 0.25782,-0.61719 0.57032,-1.20312 0.9375,-1.7539 0.3711,-0.55469 0.79297,-1.07032 1.26563,-1.53907 0.46875,-0.47265 0.98047,-0.89453 1.53516,-1.26172 0.55468,-0.37109 1.14062,-0.68359 1.7539,-0.9375 0.61719,-0.25781 1.25391,-0.44921 1.90625,-0.57812 0.65235,-0.13281 1.3125,-0.19531 1.98047,-0.19531 0.66406,0 1.32422,0.0625 1.98047,0.19531 0.65234,0.12891 1.28516,0.32031 1.90234,0.57812 0.61719,0.25391 1.19922,0.56641 1.75391,0.9375 0.55469,0.36719 1.06641,0.78907 1.53906,1.26172 0.47266,0.46875 0.89063,0.98438 1.26172,1.53907 0.37109,0.55078 0.68359,1.13671 0.9375,1.7539 0.25781,0.61328 0.44922,1.25 0.57813,1.90235 0.1289,0.65234 0.19531,1.3125 0.19531,1.98046 z m 0,0"
       fill-opacity="1"
       fill-rule="nonzero"
       id="path39910"
       style="fill:#09009b;fill-opacity:1" />
    <path
       fill="rgb(7.058716%, 48.239136%, 79.60968%)"
       d="m 210.86719,175.63281 h -46.73047 c -1.98047,0 -4.39453,0.38281 -8.50391,9.09766 -1.85547,3.91797 -11.6289,26.04687 -11.6289,26.04687 h 86.91015 c -2.58203,-6.47656 -9.80078,-22.04297 -11.375,-26.04687 -3.15234,-7.98828 -6.79297,-9.09766 -8.67187,-9.09766 z m 0,0"
       fill-opacity="1"
       fill-rule="nonzero"
       id="path39912"
       style="fill:#09009b;fill-opacity:1" />
  </g>
  <path
     id="path36499"
     style="fill:#09009b;stroke-width:2.60064"
     d="M 186.08813,0 A 186.08812,186.08812 0 0 0 0,186.08812 186.08812,186.08812 0 0 0 186.08813,372.17623 186.08812,186.08812 0 0 0 372.17624,186.08812 186.08812,186.08812 0 0 0 186.08813,0 Z m 0,4.775777 A 181.30933,181.30933 0 0 1 367.40046,186.08812 181.30933,181.30933 0 0 1 186.08813,367.39682 181.30933,181.30933 0 0 1 4.77941,186.08812 181.30933,181.30933 0 0 1 186.08813,4.775777 Z" />
</svg>
