<?xml version="1.0" encoding="UTF-8" standalone="no"?>
<svg
   width="375"
   zoomAndPan="magnify"
   viewBox="0 0 375 374.999991"
   height="374.999991"
   preserveAspectRatio="xMidYMid meet"
   version="1.0"
   id="svg42100"
   sodipodi:docname="icon-checklist.svg"
   inkscape:version="1.1.1 (3bf5ae0, 2021-09-20)"
   xmlns:inkscape="http://www.inkscape.org/namespaces/inkscape"
   xmlns:sodipodi="http://sodipodi.sourceforge.net/DTD/sodipodi-0.dtd"
   xmlns:xlink="http://www.w3.org/1999/xlink"
   xmlns="http://www.w3.org/2000/svg"
   xmlns:svg="http://www.w3.org/2000/svg">
  <sodipodi:namedview
     id="namedview42102"
     pagecolor="#505050"
     bordercolor="#ffffff"
     borderopacity="1"
     inkscape:pageshadow="0"
     inkscape:pageopacity="0"
     inkscape:pagecheckerboard="1"
     showgrid="false"
     inkscape:zoom="0.49686037"
     inkscape:cx="164.02999"
     inkscape:cy="397.49598"
     inkscape:window-width="1366"
     inkscape:window-height="713"
     inkscape:window-x="0"
     inkscape:window-y="27"
     inkscape:window-maximized="1"
     inkscape:current-layer="svg42100" />
  <defs
     id="defs42038">
    <linearGradient
       inkscape:collect="always"
       id="linearGradient6941">
      <stop
         style="stop-color:#22962b;stop-opacity:1;"
         offset="0"
         id="stop6937" />
      <stop
         style="stop-color:#22962b;stop-opacity:0;"
         offset="1"
         id="stop6939" />
    </linearGradient>
    <linearGradient
       inkscape:collect="always"
       id="linearGradient6202">
      <stop
         style="stop-color:#d4b125;stop-opacity:1;"
         offset="0"
         id="stop6198" />
      <stop
         style="stop-color:#d4b125;stop-opacity:0;"
         offset="1"
         id="stop6200" />
    </linearGradient>
    <clipPath
       id="clip-0">
      <path
         d="M 112.5 117.1875 L 262.5 117.1875 L 262.5 127 L 112.5 127 Z M 112.5 117.1875 "
         clip-rule="nonzero"
         id="path41996" />
    </clipPath>
    <clipPath
       id="clip-1">
      <path
         d="M 112.5 248 L 262.5 248 L 262.5 258.1875 L 112.5 258.1875 Z M 112.5 248 "
         clip-rule="nonzero"
         id="path41999" />
    </clipPath>
    <clipPath
       id="clip-2">
      <path
         d="M 112.5 229 L 157 229 L 157 240 L 112.5 240 Z M 112.5 229 "
         clip-rule="nonzero"
         id="path42002" />
    </clipPath>
    <clipPath
       id="clip-3">
      <path
         d="M 219 229 L 262.5 229 L 262.5 240 L 219 240 Z M 219 229 "
         clip-rule="nonzero"
         id="path42005" />
    </clipPath>
    <clipPath
       id="clip-4">
      <path
         d="M 112.5 211 L 148 211 L 148 221 L 112.5 221 Z M 112.5 211 "
         clip-rule="nonzero"
         id="path42008" />
    </clipPath>
    <clipPath
       id="clip-5">
      <path
         d="M 227 211 L 262.5 211 L 262.5 221 L 227 221 Z M 227 211 "
         clip-rule="nonzero"
         id="path42011" />
    </clipPath>
    <clipPath
       id="clip-6">
      <path
         d="M 112.5 192 L 149 192 L 149 202 L 112.5 202 Z M 112.5 192 "
         clip-rule="nonzero"
         id="path42014" />
    </clipPath>
    <clipPath
       id="clip-7">
      <path
         d="M 226 192 L 262.5 192 L 262.5 202 L 226 202 Z M 226 192 "
         clip-rule="nonzero"
         id="path42017" />
    </clipPath>
    <clipPath
       id="clip-8">
      <path
         d="M 218 173 L 262.5 173 L 262.5 183 L 218 183 Z M 218 173 "
         clip-rule="nonzero"
         id="path42020" />
    </clipPath>
    <clipPath
       id="clip-9">
      <path
         d="M 112.5 173 L 157 173 L 157 183 L 112.5 183 Z M 112.5 173 "
         clip-rule="nonzero"
         id="path42023" />
    </clipPath>
    <clipPath
       id="clip-10">
      <path
         d="M 210 154 L 262.5 154 L 262.5 165 L 210 165 Z M 210 154 "
         clip-rule="nonzero"
         id="path42026" />
    </clipPath>
    <clipPath
       id="clip-11">
      <path
         d="M 112.5 154 L 165 154 L 165 165 L 112.5 165 Z M 112.5 154 "
         clip-rule="nonzero"
         id="path42029" />
    </clipPath>
    <clipPath
       id="clip-12">
      <path
         d="M 112.5 136 L 176 136 L 176 146 L 112.5 146 Z M 112.5 136 "
         clip-rule="nonzero"
         id="path42032" />
    </clipPath>
    <clipPath
       id="clip-13">
      <path
         d="M 200 136 L 262.5 136 L 262.5 146 L 200 146 Z M 200 136 "
         clip-rule="nonzero"
         id="path42035" />
    </clipPath>
    <clipPath
       id="clip-0-63">
      <path
         d="m 112.5,113 h 150 v 149.5 h -150 z m 0,0"
         clip-rule="nonzero"
         id="path39892" />
    </clipPath>
    <clipPath
       id="clip-1-2">
      <path
         d="m 147,251 h 81 v 11.5 h -81 z m 0,0"
         clip-rule="nonzero"
         id="path39895" />
    </clipPath>
    <filter
       inkscape:label="Chalk and Sponge"
       inkscape:menu="Distort"
       inkscape:menu-tooltip="Low turbulence gives sponge look and high turbulence chalk"
       width="1.0008926"
       height="1.0044523"
       y="-0.0022261531"
       x="-0.00044627816"
       style="color-interpolation-filters:sRGB;"
       id="filter4930">
      <feTurbulence
         baseFrequency="0.4"
         type="fractalNoise"
         seed="0"
         numOctaves="5"
         result="result1"
         id="feTurbulence4926" />
      <feDisplacementMap
         xChannelSelector="R"
         yChannelSelector="G"
         scale="30"
         in="SourceGraphic"
         in2="result1"
         id="feDisplacementMap4928" />
      <feGaussianBlur
         stdDeviation="0.069590382"
         id="feGaussianBlur6206" />
    </filter>
    <radialGradient
       inkscape:collect="always"
       xlink:href="#linearGradient6202"
       id="radialGradient6204"
       cx="188.14529"
       cy="365.03506"
       fx="188.14529"
       fy="365.03506"
       r="187.12199"
       gradientTransform="matrix(1.0352676,-0.12163645,0.03568799,0.34049631,-19.662808,263.6273)"
       gradientUnits="userSpaceOnUse" />
    <linearGradient
       inkscape:collect="always"
       xlink:href="#linearGradient6941"
       id="linearGradient6943"
       x1="254.80722"
       y1="201.38858"
       x2="370.68835"
       y2="0.00022792816"
       gradientUnits="userSpaceOnUse" />
  </defs>
  <ellipse
     style="fill:url(#radialGradient6204);fill-opacity:1;stroke-width:1.52599;filter:url(#filter4930);opacity:1"
     id="path4441"
     cx="188.14529"
     cy="365.03506"
     rx="187.12199"
     ry="37.512451"
     transform="matrix(0.83298615,0,0,0.78675064,31.42287,57.581953)" />
  <g
     aria-label="v"
     transform="matrix(1.0102422,0,0,0.92145401,0.33708878,-2.1002532e-4)"
     id="text2186"
     style="font-size:696.486px;line-height:1.25;fill:url(#linearGradient6943);fill-opacity:1;stroke-width:47.4877;opacity:1">
    <path
       d="M -0.33367126,195.4413 61.899361,156.82028 173.1428,307.30095 c 0,0 72.54265,-208.16043 113.21669,-255.454652 C 327.03353,4.5520757 370.68835,2.2792816e-4 370.68835,2.2792816e-4 c 0,0 -107.46917,275.95415207184 -152.23694,366.14554207184 -12.74497,25.67666 -73.0439,23.03476 -90.61722,0 C 64.988066,283.76831 -0.33367126,195.4413 -0.33367126,195.4413 Z"
       id="path2556"
       sodipodi:nodetypes="ccczcssc"
       style="fill:url(#linearGradient6943);fill-opacity:1;stroke-width:48.0676" />
  </g>
</svg>
