<?xml version="1.0" encoding="UTF-8" standalone="no"?>
<svg
   width="375"
   zoomAndPan="magnify"
   viewBox="0 0 375 374.999991"
   height="374.999991"
   preserveAspectRatio="xMidYMid meet"
   version="1.0"
   id="svg37069"
   sodipodi:docname="icon-bathub.svg"
   inkscape:version="1.1.1 (3bf5ae0, 2021-09-20)"
   xmlns:inkscape="http://www.inkscape.org/namespaces/inkscape"
   xmlns:sodipodi="http://sodipodi.sourceforge.net/DTD/sodipodi-0.dtd"
   xmlns="http://www.w3.org/2000/svg"
   xmlns:svg="http://www.w3.org/2000/svg">
  <sodipodi:namedview
     id="namedview37071"
     pagecolor="#505050"
     bordercolor="#ffffff"
     borderopacity="1"
     inkscape:pageshadow="0"
     inkscape:pageopacity="0"
     inkscape:pagecheckerboard="1"
     showgrid="false"
     inkscape:zoom="0.70266667"
     inkscape:cx="-29.174573"
     inkscape:cy="221.29981"
     inkscape:window-width="1366"
     inkscape:window-height="708"
     inkscape:window-x="0"
     inkscape:window-y="0"
     inkscape:window-maximized="1"
     inkscape:current-layer="svg37069" />
  <defs
     id="defs37045">
    <clipPath
       id="clip-0">
      <path
         d="M 115 251 L 130 251 L 130 262.148438 L 115 262.148438 Z M 115 251 "
         clip-rule="nonzero"
         id="path37039" />
    </clipPath>
    <clipPath
       id="clip-1">
      <path
         d="M 206 251 L 221 251 L 221 262.148438 L 206 262.148438 Z M 206 251 "
         clip-rule="nonzero"
         id="path37042" />
    </clipPath>
  </defs>
  <g
     id="g37154"
     style="fill:#09009b;fill-opacity:1"
     transform="matrix(1.5089827,0,0,1.5089827,-67.456346,-59.938854)">
    <g
       clip-path="url(#clip-0)"
       id="g37049"
       style="fill:#09009b;fill-opacity:1">
      <path
         fill="rgb(7.058716%, 48.239136%, 79.60968%)"
         d="m 128.87891,251.72656 c 0.62109,1.07422 0.93359,2.23047 0.9375,3.47266 0,0.45703 -0.043,0.91015 -0.13282,1.35547 -0.0898,0.44922 -0.22265,0.88281 -0.39453,1.30468 -0.17578,0.42188 -0.39062,0.82032 -0.64453,1.19922 -0.25391,0.37891 -0.53906,0.73047 -0.86328,1.05469 -0.32031,0.32031 -0.67187,0.60938 -1.05078,0.86328 -0.37891,0.25391 -0.78125,0.46875 -1.20313,0.64063 -0.42187,0.17578 -0.85546,0.30859 -1.30078,0.39453 -0.44922,0.0898 -0.90234,0.13672 -1.35547,0.13672 -0.45703,0 -0.91015,-0.0469 -1.35546,-0.13672 -0.44922,-0.0859 -0.88282,-0.21875 -1.30469,-0.39453 -0.42188,-0.17188 -0.82031,-0.38672 -1.19922,-0.64063 -0.37891,-0.2539 -0.73047,-0.54297 -1.05469,-0.86328 -0.32031,-0.32422 -0.60937,-0.67578 -0.86328,-1.05469 -0.25391,-0.3789 -0.46875,-0.77734 -0.64062,-1.19922 -0.17579,-0.42187 -0.3086,-0.85546 -0.39454,-1.30468 -0.0898,-0.44532 -0.13671,-0.89844 -0.13671,-1.35547 0.004,-1.24219 0.3164,-2.39844 0.9375,-3.47266 z m 0,0"
         fill-opacity="1"
         fill-rule="nonzero"
         id="path37047"
         style="fill:#09009b;fill-opacity:1" />
    </g>
    <path
       fill="rgb(7.058716%, 48.239136%, 79.60968%)"
       d="M 95.082031,154.47656 H 88.136719 V 98.90625 c 0,-0.765625 0.03125,-1.527344 0.101562,-2.289062 0.07031,-0.757813 0.175781,-1.515626 0.320313,-2.265626 0.140625,-0.75 0.316406,-1.492187 0.527344,-2.226562 0.210937,-0.734375 0.457031,-1.453125 0.734374,-2.164062 0.28125,-0.710938 0.59375,-1.410157 0.9375,-2.089844 0.34375,-0.679688 0.71875,-1.34375 1.128907,-1.992188 0.40625,-0.644531 0.84375,-1.269531 1.308593,-1.875 0.46875,-0.605468 0.960938,-1.183594 1.480469,-1.742187 0.523438,-0.558594 1.066407,-1.09375 1.640625,-1.597657 0.570313,-0.507812 1.164063,-0.988281 1.78125,-1.4375 0.613282,-0.449218 1.25,-0.871093 1.906254,-1.261718 0.65625,-0.390625 1.32812,-0.75 2.01953,-1.078125 0.6914,-0.328125 1.39453,-0.621094 2.10937,-0.882813 0.71875,-0.261718 1.44922,-0.488281 2.1875,-0.679687 0.73828,-0.195313 1.48438,-0.351563 2.23828,-0.472657 0.75391,-0.121093 1.51172,-0.210937 2.27344,-0.261718 0.76172,-0.05078 1.52344,-0.0625 2.28906,-0.04297 0.76172,0.01953 1.52344,0.07813 2.28125,0.171875 0.75782,0.08984 1.50782,0.21875 2.25391,0.382812 0.74609,0.164063 1.48438,0.363282 2.21094,0.59375 0.72656,0.234376 1.4414,0.5 2.14453,0.800782 0.69922,0.300781 1.38672,0.632812 2.05859,0.996094 0.67188,0.367187 1.32032,0.761718 1.95703,1.1875 0.63282,0.425781 1.24219,0.882812 1.83594,1.367187 0.58984,0.484375 1.15625,0.996094 1.69922,1.53125 0.54297,0.539063 1.05859,1.101563 1.54687,1.6875 0.48829,0.585937 0.94922,1.191406 1.38282,1.820313 0.43359,0.628906 0.83203,1.277343 1.20312,1.945312 0.3711,0.667969 0.71094,1.351562 1.01953,2.050781 0.30469,0.699219 0.57813,1.410157 0.82032,2.136719 0.23828,0.722656 0.44531,1.460938 0.61328,2.203125 0.17187,0.746094 0.30468,1.496094 0.40625,2.253906 h -0.38282 c -0.95703,-0.144531 -1.91796,-0.226562 -2.88281,-0.246093 h -0.41797 c -0.91797,0.02734 -1.83203,0.109374 -2.74218,0.246093 h -0.45313 c -0.0508,-0.566406 -0.13281,-1.128906 -0.24219,-1.6875 -0.10547,-0.558593 -0.24218,-1.109375 -0.40625,-1.65625 -0.16015,-0.542969 -0.35156,-1.078125 -0.5664,-1.605469 -0.21485,-0.527343 -0.45703,-1.042968 -0.72266,-1.542968 -0.26562,-0.503906 -0.55469,-0.992188 -0.86719,-1.46875 -0.3164,-0.472656 -0.65234,-0.929688 -1.00781,-1.371094 -0.35937,-0.441406 -0.73828,-0.863281 -1.14062,-1.269531 -0.39844,-0.402344 -0.82032,-0.785157 -1.25782,-1.148438 -0.4375,-0.363281 -0.89062,-0.703125 -1.36328,-1.023437 -0.47265,-0.316406 -0.95703,-0.613282 -1.45703,-0.882813 -0.5,-0.269531 -1.01172,-0.515625 -1.53515,-0.734375 -0.52735,-0.222656 -1.0586,-0.414062 -1.60157,-0.582031 -0.54687,-0.167969 -1.09375,-0.308594 -1.65234,-0.421875 -0.55859,-0.113281 -1.11719,-0.199219 -1.68359,-0.257812 -0.56641,-0.05859 -1.13282,-0.08984 -1.70313,-0.09375 -0.56641,-0.0039 -1.13672,0.02344 -1.70312,0.07422 -0.56641,0.05469 -1.12891,0.132813 -1.6875,0.242188 -0.5586,0.109375 -1.10938,0.242187 -1.65235,0.40625 -0.54687,0.160156 -1.08203,0.351562 -1.60937,0.566406 -0.52735,0.214844 -1.03907,0.453125 -1.54297,0.71875 -0.50391,0.265625 -0.99219,0.554688 -1.46485,0.867188 -0.47656,0.316406 -0.93359,0.652343 -1.375,1.007812 -0.4414,0.359375 -0.86718,0.738281 -1.26953,1.140625 -0.402341,0.398437 -0.78906,0.816406 -1.152341,1.253906 -0.363281,0.4375 -0.703125,0.894531 -1.019531,1.363281 -0.320313,0.472657 -0.613282,0.957032 -0.886719,1.457032 -0.269531,0.5 -0.515625,1.011718 -0.734375,1.535156 -0.222656,0.527344 -0.417969,1.058594 -0.585938,1.601562 -0.167968,0.542969 -0.308594,1.09375 -0.421875,1.652344 C 95.25,94.375 95.164062,94.933594 95.101562,95.5 c -0.05859,0.566406 -0.08984,1.132812 -0.08984,1.703125 -0.0039,0.566406 0.01953,1.136719 0.07031,1.703125 z m 0,0"
       fill-opacity="1"
       fill-rule="nonzero"
       id="path37051"
       style="fill:#09009b;fill-opacity:1" />
    <path
       fill="rgb(7.058716%, 48.239136%, 79.60968%)"
       d="m 136.13672,102.65625 c 0.92969,0.20313 1.83203,0.49219 2.71094,0.86719 1.60156,0.69922 3.02343,1.66015 4.26953,2.88281 1.30859,1.30859 2.3125,2.81641 3.01953,4.52734 0.70312,1.70704 1.05078,3.48829 1.04687,5.33594 h -27.78515 c -0.004,-1.35156 0.18359,-2.67187 0.57031,-3.96875 0.38281,-1.29297 0.94141,-2.50781 1.67969,-3.64062 0.73828,-1.13282 1.62109,-2.13672 2.64844,-3.00782 1.03125,-0.875 2.16406,-1.58593 3.40234,-2.1289 2.72265,-1.15625 5.53515,-1.44531 8.4375,-0.86719 z m 0,0"
       fill-opacity="1"
       fill-rule="nonzero"
       id="path37053"
       style="fill:#09009b;fill-opacity:1" />
    <path
       fill="rgb(7.058716%, 48.239136%, 79.60968%)"
       d="M 74.246094,161.42187 H 192.33594 v 6.94922 H 74.246094 Z m 0,0"
       fill-opacity="1"
       fill-rule="nonzero"
       id="path37055"
       style="fill:#09009b;fill-opacity:1" />
    <g
       clip-path="url(#clip-1)"
       id="g37059"
       style="fill:#09009b;fill-opacity:1">
      <path
         fill="rgb(7.058716%, 48.239136%, 79.60968%)"
         d="m 219.18359,251.72656 c 0.6211,1.07422 0.9336,2.23047 0.9375,3.47266 0,0.45703 -0.043,0.91015 -0.13281,1.35547 -0.0898,0.44922 -0.22266,0.88281 -0.39453,1.30468 -0.17578,0.42188 -0.39063,0.82032 -0.64453,1.19922 -0.25391,0.37891 -0.53906,0.73047 -0.86328,1.05469 -0.32422,0.32031 -0.67188,0.60938 -1.05078,0.86328 -0.38282,0.25391 -0.78125,0.46875 -1.20313,0.64063 -0.42187,0.17578 -0.85547,0.30859 -1.30078,0.39453 -0.44922,0.0898 -0.90234,0.13672 -1.35547,0.13672 -0.45703,0 -0.91016,-0.0469 -1.35547,-0.13672 -0.44922,-0.0859 -0.88281,-0.21875 -1.30469,-0.39453 -0.42187,-0.17188 -0.82031,-0.38672 -1.19921,-0.64063 -0.37891,-0.2539 -0.73047,-0.54297 -1.05469,-0.86328 -0.32031,-0.32422 -0.60938,-0.67578 -0.86328,-1.05469 -0.25391,-0.3789 -0.46875,-0.77734 -0.64063,-1.19922 -0.17578,-0.42187 -0.30859,-0.85546 -0.39844,-1.30468 -0.0859,-0.44532 -0.13281,-0.89844 -0.13281,-1.35547 0.004,-1.24219 0.31641,-2.39844 0.9375,-3.47266 z m 0,0"
         fill-opacity="1"
         fill-rule="nonzero"
         id="path37057"
         style="fill:#09009b;fill-opacity:1" />
    </g>
    <path
       fill="rgb(7.058716%, 48.239136%, 79.60968%)"
       d="m 244.43359,185.73437 h -45.15234 v -38.20312 c 0,-0.46094 0.0898,-0.90625 0.26562,-1.33203 0.17579,-0.42578 0.42579,-0.80078 0.75,-1.125 0.32813,-0.32422 0.70313,-0.57813 1.12891,-0.75391 0.42578,-0.17578 0.86719,-0.26172 1.32813,-0.26172 h 38.20703 c 0.46093,0 0.90234,0.0859 1.32812,0.26172 0.42578,0.17578 0.80078,0.42969 1.12891,0.75391 0.32422,0.32422 0.57422,0.69922 0.75,1.125 0.17578,0.42578 0.26562,0.87109 0.26562,1.33203 z m 0,0"
       fill-opacity="1"
       fill-rule="nonzero"
       id="path37061"
       style="fill:#09009b;fill-opacity:1" />
    <path
       fill="rgb(7.058716%, 48.239136%, 79.60968%)"
       d="m 199.28125,199.62891 v -6.94532 h 45.15234 v 6.94532 c 0,0.46093 -0.0898,0.90234 -0.26562,1.32812 -0.17578,0.42578 -0.42578,0.80078 -0.75,1.12891 -0.32813,0.32422 -0.70313,0.57422 -1.12891,0.75 -0.42578,0.17968 -0.86719,0.26562 -1.32812,0.26562 h -38.20703 c -0.46094,0 -0.90235,-0.0859 -1.32813,-0.26562 -0.42578,-0.17578 -0.80078,-0.42578 -1.12891,-0.75 -0.32421,-0.32813 -0.57421,-0.70313 -0.75,-1.12891 -0.17578,-0.42578 -0.26562,-0.86719 -0.26562,-1.32812 z m 0,0"
       fill-opacity="1"
       fill-rule="nonzero"
       id="path37063"
       style="fill:#09009b;fill-opacity:1" />
    <path
       fill="rgb(7.058716%, 48.239136%, 79.60968%)"
       d="m 251.37891,161.42187 h 10.42187 v 6.94922 h -10.42187 z m 0,0"
       fill-opacity="1"
       fill-rule="nonzero"
       id="path37065"
       style="fill:#09009b;fill-opacity:1" />
    <path
       fill="rgb(7.058716%, 48.239136%, 79.60968%)"
       d="m 251.37891,175.31641 h 10.42187 v 31.25781 c 0,1.2539 -0.0625,2.5 -0.18359,3.74609 -0.125,1.2461 -0.3086,2.48047 -0.55078,3.70703 -0.2461,1.23047 -0.54688,2.44141 -0.91016,3.63672 -0.36328,1.19922 -0.78516,2.375 -1.26563,3.53125 -0.47656,1.15625 -1.01171,2.28516 -1.60156,3.39063 -0.58984,1.10156 -1.23437,2.17578 -1.92969,3.21484 -0.69531,1.03906 -1.4375,2.04297 -2.23046,3.01172 -0.79688,0.96875 -1.63282,1.89453 -2.51954,2.77734 -0.88281,0.88672 -1.8125,1.72657 -2.77734,2.51953 -0.96875,0.79297 -1.97266,1.53907 -3.01172,2.23438 -1.03906,0.69141 -2.11328,1.33594 -3.21484,1.92578 -1.10547,0.58984 -2.23438,1.125 -3.39063,1.60156 -1.15625,0.48047 -2.33203,0.90235 -3.53125,1.26563 -1.19531,0.36328 -2.41015,0.66406 -3.63672,0.91015 -1.22656,0.24219 -2.46093,0.42579 -3.70703,0.55079 -1.24609,0.12109 -2.49609,0.18359 -3.74609,0.18359 H 112.44922 c -1.25,0 -2.5,-0.0625 -3.74219,-0.18359 -1.24609,-0.125 -2.48437,-0.3086 -3.71094,-0.55079 -1.22656,-0.24609 -2.4375,-0.54687 -3.63671,-0.91015 -1.19532,-0.36328 -2.375005,-0.78516 -3.531255,-1.26563 -1.15625,-0.47656 -2.285156,-1.01172 -3.386719,-1.60156 -1.105468,-0.58984 -2.175781,-1.23047 -3.21875,-1.92578 -1.039062,-0.69531 -2.042968,-1.44141 -3.011718,-2.23438 -0.964844,-0.79296 -1.890626,-1.63281 -2.777344,-2.51953 -0.882813,-0.88281 -1.722656,-1.80859 -2.515625,-2.77734 -0.796875,-0.96875 -1.539063,-1.97266 -2.234375,-3.01172 -0.695313,-1.03906 -1.339844,-2.11328 -1.929688,-3.21484 -0.589844,-1.10547 -1.121094,-2.23438 -1.601562,-3.39063 -0.480469,-1.15625 -0.898438,-2.33203 -1.261719,-3.53125 -0.363281,-1.19531 -0.667969,-2.40625 -0.914063,-3.63672 -0.242187,-1.22656 -0.425781,-2.46093 -0.546874,-3.70703 -0.125,-1.24609 -0.183594,-2.49219 -0.183594,-3.74609 V 175.31641 H 192.33594 v 24.3125 c 0,0.68359 0.0664,1.36328 0.19922,2.03125 0.13281,0.67187 0.33203,1.32421 0.59375,1.95703 0.26171,0.63281 0.58203,1.23047 0.96093,1.80078 0.38282,0.57031 0.8125,1.09375 1.29688,1.57812 0.48437,0.48438 1.01172,0.91797 1.57812,1.29688 0.57032,0.3789 1.17188,0.69922 1.80078,0.96094 0.63282,0.26171 1.28516,0.46093 1.95704,0.59375 0.67187,0.13281 1.34765,0.19921 2.03125,0.19921 h 38.20703 c 0.68359,0 1.35937,-0.0664 2.03125,-0.19921 0.67187,-0.13282 1.32422,-0.33204 1.95703,-0.59375 0.6289,-0.26172 1.23047,-0.58204 1.80078,-0.96094 0.56641,-0.37891 1.09375,-0.8125 1.57812,-1.29688 0.48438,-0.48437 0.91407,-1.00781 1.29688,-1.57812 0.37891,-0.57031 0.69922,-1.16797 0.96094,-1.80078 0.26172,-0.63282 0.46093,-1.28516 0.59375,-1.95703 0.13281,-0.66797 0.19922,-1.34766 0.19922,-2.03125 z m 0,0"
       fill-opacity="1"
       fill-rule="nonzero"
       id="path37067"
       style="fill:#09009b;fill-opacity:1" />
  </g>
  <path
     id="path36499"
     style="fill:#09009b;stroke-width:2.60064"
     d="M 186.08813,0 A 186.08812,186.08812 0 0 0 0,186.08812 186.08812,186.08812 0 0 0 186.08813,372.17623 186.08812,186.08812 0 0 0 372.17624,186.08812 186.08812,186.08812 0 0 0 186.08813,0 Z m 0,4.775777 A 181.30933,181.30933 0 0 1 367.40046,186.08812 181.30933,181.30933 0 0 1 186.08813,367.39681 181.30933,181.30933 0 0 1 4.77941,186.08812 181.30933,181.30933 0 0 1 186.08813,4.775777 Z" />
</svg>
